<svg width="131" height="16" viewBox="0 0 131 16" fill="none" xmlns="http://www.w3.org/2000/svg">
<path d="M4.14108 15.578C3.56241 15.578 3.02575 15.4287 2.53108 15.13C2.03641 14.8407 1.64441 14.4487 1.35508 13.954C1.06574 13.4593 0.921078 12.9273 0.921078 12.358C0.921078 11.882 1.02374 11.4293 1.22908 11C1.44374 10.5613 1.73774 10.1927 2.11108 9.894L6.15708 6.898L4.16908 5.96C4.09441 5.92267 4.01041 5.89 3.91708 5.862C3.82374 5.82467 3.73041 5.806 3.63708 5.806C3.49708 5.806 3.35241 5.84333 3.20308 5.918C3.06308 5.98333 2.93241 6.072 2.81108 6.184L1.87308 7.234L0.865078 6.366L1.81708 5.218C2.04108 4.94733 2.31174 4.742 2.62908 4.602C2.94641 4.462 3.28241 4.392 3.63708 4.392C3.87974 4.392 4.08041 4.42 4.23908 4.476C4.39775 4.52267 4.56108 4.588 4.72908 4.672L7.76708 6.1C7.84175 6.128 7.92575 6.142 8.01908 6.142H9.13908V7.542H7.66908L3.11908 10.888C2.67108 11.2707 2.44708 11.756 2.44708 12.344C2.44708 12.6613 2.52641 12.9553 2.68508 13.226C2.85308 13.506 3.07241 13.7253 3.34308 13.884C3.62308 14.052 3.92641 14.136 4.25308 14.136H8.32708V15.578H4.14108ZM5.82108 12.092H7.05308V13.24H5.82108V12.092ZM5.00908 10.384H6.22708V11.63H5.00908V10.384ZM6.70308 10.384H7.92108V11.63H6.70308V10.384ZM11.6201 13.492C12.4881 13.1187 13.1275 12.8153 13.5381 12.582C13.9581 12.358 14.2521 12.1247 14.4201 11.882C14.5975 11.6487 14.6861 11.3547 14.6861 11H13.3981C12.8755 11 12.3948 10.8833 11.9561 10.65C11.5268 10.4073 11.1815 10.076 10.9201 9.656C10.6681 9.236 10.5421 8.76933 10.5421 8.256C10.5421 7.74267 10.6681 7.27133 10.9201 6.842C11.1815 6.41267 11.5268 6.072 11.9561 5.82C12.3948 5.55867 12.8755 5.428 13.3981 5.428C13.9021 5.428 14.3641 5.554 14.7841 5.806C15.2041 6.058 15.5308 6.40333 15.7641 6.842C16.0068 7.27133 16.1281 7.74267 16.1281 8.256V10.426C16.1281 11.2007 15.9881 11.8307 15.7081 12.316C15.4375 12.8013 15.0268 13.212 14.4761 13.548C13.9348 13.8933 13.1321 14.2993 12.0681 14.766L11.6201 13.492ZM13.3981 9.558H14.6861V8.256C14.6861 7.892 14.5601 7.584 14.3081 7.332C14.0561 7.07067 13.7528 6.94 13.3981 6.94C13.0248 6.94 12.7075 7.07067 12.4461 7.332C12.1941 7.584 12.0681 7.892 12.0681 8.256C12.0681 8.62933 12.1941 8.942 12.4461 9.194C12.7075 9.43667 13.0248 9.558 13.3981 9.558ZM16.0581 9.474H16.8561C16.9495 9.474 16.9961 9.52067 16.9961 9.614V10.86C16.9961 10.9533 16.9495 11 16.8561 11H16.0581V9.474ZM16.7135 9.614C16.7135 9.52067 16.7602 9.474 16.8535 9.474H19.9475C20.2742 9.474 20.5588 9.35733 20.8015 9.124C21.0442 8.89067 21.1655 8.59667 21.1655 8.242C21.1655 7.794 20.9462 7.43933 20.5075 7.178L17.2315 5.022V3.86L19.9615 0.976L20.9415 1.914L18.7015 4.266L21.4315 6.058C21.8048 6.30067 22.0942 6.61333 22.2995 6.996C22.5048 7.37867 22.6075 7.808 22.6075 8.284C22.6075 8.77867 22.4862 9.236 22.2435 9.656C22.0102 10.0667 21.6882 10.3933 21.2775 10.636C20.8668 10.8787 20.4188 11 19.9335 11H16.8535C16.7602 11 16.7135 10.9533 16.7135 10.86V9.614ZM21.7636 13.562C22.4449 13.1793 22.9302 12.876 23.2196 12.652C23.5182 12.4373 23.7329 12.176 23.8636 11.868C24.0036 11.5693 24.0736 11.1587 24.0736 10.636V6.226H25.5156V10.622C25.5156 11.35 25.4129 11.9473 25.2076 12.414C25.0022 12.8807 24.6756 13.2867 24.2276 13.632C23.7889 13.9773 23.1496 14.3553 22.3096 14.766L21.7636 13.562ZM29.4544 11C29.0064 11 28.5957 10.8927 28.2224 10.678C27.8491 10.454 27.5551 10.1553 27.3404 9.782C27.1257 9.40867 27.0184 8.998 27.0184 8.55V1.704H28.4604V8.466C28.4604 8.746 28.5584 8.984 28.7544 9.18C28.9504 9.376 29.1837 9.474 29.4544 9.474H30.1404C30.2337 9.474 30.2804 9.52067 30.2804 9.614V10.86C30.2804 10.9533 30.2337 11 30.1404 11H29.4544ZM30.0026 9.614C30.0026 9.52067 30.0492 9.474 30.1426 9.474H30.9826C31.2532 9.474 31.4866 9.38067 31.6826 9.194C31.8786 8.998 31.9766 8.76 31.9766 8.48V6.226H33.4186V8.48C33.4186 8.76 33.5166 8.998 33.7126 9.194C33.9086 9.38067 34.1419 9.474 34.4126 9.474H35.2666C35.3599 9.474 35.4066 9.52067 35.4066 9.614V10.86C35.4066 10.9533 35.3599 11 35.2666 11H34.4126C34.0486 11 33.7172 10.9207 33.4186 10.762C33.1292 10.6033 32.8912 10.384 32.7046 10.104C32.5179 10.384 32.2752 10.6033 31.9766 10.762C31.6872 10.9207 31.3559 11 30.9826 11H30.1426C30.0492 11 30.0026 10.9533 30.0026 10.86V9.614ZM30.9266 3.51H32.3406V4.924H30.9266V3.51ZM33.0686 3.51H34.4966V4.924H33.0686V3.51ZM42.7595 11C42.0969 11 41.5695 10.7667 41.1775 10.3C40.7949 9.83333 40.6035 9.25467 40.6035 8.564V6.226H41.7655V8.48C41.7655 8.76 41.8635 8.998 42.0595 9.194C42.2555 9.38067 42.4889 9.474 42.7595 9.474H43.5295V5.806H44.9715V11H42.7595ZM35.2695 11C35.1762 11 35.1295 10.9533 35.1295 10.86V9.614C35.1295 9.52067 35.1762 9.474 35.2695 9.474H35.8995C36.1702 9.474 36.4035 9.38067 36.5995 9.194C36.7955 8.998 36.8935 8.76 36.8935 8.48V6.226H38.0555V8.564C38.0555 9.25467 37.8595 9.83333 37.4675 10.3C37.0849 10.7667 36.5622 11 35.8995 11H35.2695ZM39.3295 11.028C38.6669 11.028 38.1395 10.7947 37.7475 10.328C37.3649 9.86133 37.1735 9.28267 37.1735 8.592V6.226H38.3355V8.508C38.3355 8.788 38.4335 9.026 38.6295 9.222C38.8255 9.40867 39.0589 9.502 39.3295 9.502C39.6095 9.502 39.8429 9.40867 40.0295 9.222C40.2255 9.026 40.3235 8.788 40.3235 8.508V6.226H41.4855V8.592C41.4855 9.28267 41.2895 9.86133 40.8975 10.328C40.5149 10.7947 39.9922 11.028 39.3295 11.028ZM46.4325 1.704H47.8745V11H46.4325V1.704Z" fill="#01CD98"/>
<path d="M51.2431 13.828C51.9431 13.4547 52.4471 13.1607 52.7551 12.946C53.0631 12.7407 53.3011 12.4747 53.4691 12.148C53.6371 11.8307 53.7211 11.3967 53.7211 10.846V6.688H54.5891V10.832C54.5891 11.504 54.4864 12.05 54.2811 12.47C54.0758 12.8993 53.7678 13.2633 53.3571 13.562C52.9464 13.8607 52.3538 14.1967 51.5791 14.57L51.2431 13.828ZM56.3475 10.076H59.4415C59.8055 10.076 60.1135 9.95 60.3655 9.698C60.6268 9.446 60.7575 9.13333 60.7575 8.76C60.7575 8.284 60.5335 7.90133 60.0855 7.612L57.5655 5.876L58.0415 5.162L60.7015 6.982C61.3268 7.43 61.6395 8.018 61.6395 8.746C61.6395 9.15667 61.5368 9.53467 61.3315 9.88C61.1262 10.2253 60.8508 10.5007 60.5055 10.706C60.1602 10.902 59.7822 11 59.3715 11H56.3475V10.076ZM67.2777 10.258C67.035 10.0153 66.8484 9.74 66.7177 9.432C66.5964 9.124 66.5357 8.80667 66.5357 8.48C66.5357 8.144 66.601 7.81267 66.7317 7.486C66.8717 7.15933 67.0677 6.86533 67.3197 6.604L68.5237 5.414L67.9497 4.84L68.5657 4.224L70.9457 6.604C71.1977 6.856 71.389 7.14533 71.5197 7.472C71.6597 7.79867 71.7297 8.13467 71.7297 8.48C71.7297 8.80667 71.6644 9.124 71.5337 9.432C71.4124 9.74 71.2304 10.0153 70.9877 10.258C70.7357 10.51 70.4464 10.7013 70.1197 10.832C69.8024 10.9627 69.4757 11.028 69.1397 11.028C68.7944 11.028 68.4584 10.9627 68.1317 10.832C67.8144 10.7013 67.5297 10.51 67.2777 10.258ZM67.9357 9.614C68.2717 9.95 68.673 10.118 69.1397 10.118C69.3637 10.118 69.5784 10.076 69.7837 9.992C69.989 9.908 70.171 9.782 70.3297 9.614C70.6564 9.29667 70.8197 8.9 70.8197 8.424C70.8197 7.948 70.6564 7.54667 70.3297 7.22L69.1257 6.03L67.9357 7.22C67.609 7.54667 67.4457 7.948 67.4457 8.424C67.4457 8.89067 67.609 9.28733 67.9357 9.614ZM73.4647 10.076H76.5727C76.9087 10.076 77.1934 9.96867 77.4267 9.754C77.6694 9.53 77.7907 9.25 77.7907 8.914C77.7907 8.82067 77.7627 8.68067 77.7067 8.494L76.5027 5.19L77.3147 4.896L78.8687 9.18C78.9714 9.45067 79.1394 9.67 79.3727 9.838C79.606 9.99667 79.8674 10.076 80.1567 10.076H80.4087C80.502 10.076 80.5487 10.1227 80.5487 10.216V10.86C80.5487 10.9533 80.502 11 80.4087 11H80.1427C79.732 11 79.3634 10.8973 79.0367 10.692C78.7194 10.4867 78.486 10.2207 78.3367 9.894C78.1687 10.2487 77.9307 10.524 77.6227 10.72C77.324 10.9067 76.974 11 76.5727 11H73.4647V10.076ZM88.2261 11C87.8247 11 87.4654 10.902 87.1481 10.706C86.8307 10.51 86.5834 10.244 86.4061 9.908C86.2381 9.56267 86.1541 9.18467 86.1541 8.774V6.688H86.8681V8.746C86.8681 9.11 86.9987 9.42267 87.2601 9.684C87.5307 9.94533 87.8527 10.076 88.2261 10.076H89.2341V6.24H90.1021V11H88.2261ZM80.4141 11C80.3207 11 80.2741 10.9533 80.2741 10.86V10.216C80.2741 10.1227 80.3207 10.076 80.4141 10.076H81.0721C81.4454 10.076 81.7627 9.94533 82.0241 9.684C82.2947 9.42267 82.4301 9.11 82.4301 8.746V6.688H83.1441V8.774C83.1441 9.18467 83.0554 9.56267 82.8781 9.908C82.7007 10.244 82.4534 10.51 82.1361 10.706C81.8281 10.902 81.4734 11 81.0721 11H80.4141ZM84.6561 11.028C84.2547 11.028 83.8954 10.93 83.5781 10.734C83.2701 10.538 83.0274 10.272 82.8501 9.936C82.6727 9.59067 82.5841 9.21267 82.5841 8.802V6.688H83.2981V8.774C83.2981 9.138 83.4287 9.45067 83.6901 9.712C83.9607 9.97333 84.2827 10.104 84.6561 10.104C85.0201 10.104 85.3327 9.97333 85.5941 9.712C85.8647 9.45067 86.0001 9.138 86.0001 8.774V6.688H86.7141V8.802C86.7141 9.21267 86.6254 9.59067 86.4481 9.936C86.2707 10.272 86.0234 10.538 85.7061 10.734C85.3981 10.93 85.0481 11.028 84.6561 11.028ZM85.0341 4.448H86.0701V5.498H85.0341V4.448ZM86.7981 4.448H87.8481V5.498H86.7981V4.448ZM85.9161 2.642H86.9521V3.692H85.9161V2.642ZM97.6045 10.594C97.1285 10.594 96.6899 10.4773 96.2885 10.244C95.8872 10.0107 95.5652 9.69333 95.3225 9.292C95.0892 8.89067 94.9725 8.452 94.9725 7.976C94.9725 7.50933 95.0892 7.08467 95.3225 6.702C95.5652 6.31 95.8872 6.002 96.2885 5.778C96.6899 5.54467 97.1285 5.428 97.6045 5.428H99.2985V4.672H100.153V7.976C100.153 8.452 100.041 8.89067 99.8165 9.292C99.5925 9.69333 99.2845 10.0107 98.8925 10.244C98.5099 10.4773 98.0805 10.594 97.6045 10.594ZM97.6045 9.684C98.0712 9.684 98.4679 9.52067 98.7945 9.194C99.1305 8.858 99.2985 8.452 99.2985 7.976V6.296H97.6045C97.2965 6.296 97.0119 6.37533 96.7505 6.534C96.4985 6.68333 96.2932 6.88867 96.1345 7.15C95.9852 7.402 95.9105 7.67733 95.9105 7.976C95.9105 8.452 96.0739 8.858 96.4005 9.194C96.7365 9.52067 97.1379 9.684 97.6045 9.684ZM101.497 11C101.095 11 100.736 10.902 100.419 10.706C100.101 10.51 99.8539 10.244 99.6765 9.908C99.4992 9.56267 99.4105 9.18467 99.4105 8.774V6.688H100.153V8.746C100.153 9.11 100.283 9.42267 100.545 9.684C100.815 9.94533 101.133 10.076 101.497 10.076H102.155C102.248 10.076 102.295 10.1227 102.295 10.216V10.86C102.295 10.9533 102.248 11 102.155 11H101.497ZM102.012 10.216C102.012 10.1227 102.059 10.076 102.152 10.076H102.922C103.286 10.076 103.604 9.94533 103.874 9.684C104.145 9.42267 104.28 9.11 104.28 8.746V6.688H105.148V8.746C105.148 9.11 105.279 9.42267 105.54 9.684C105.802 9.94533 106.119 10.076 106.492 10.076H107.262C107.356 10.076 107.402 10.1227 107.402 10.216V10.86C107.402 10.9533 107.356 11 107.262 11H106.492C106.1 11 105.746 10.902 105.428 10.706C105.12 10.5007 104.878 10.23 104.7 9.894C104.532 10.23 104.294 10.5007 103.986 10.706C103.678 10.902 103.324 11 102.922 11H102.152C102.059 11 102.012 10.9533 102.012 10.86V10.216ZM103.314 4.252H104.364V5.302H103.314V4.252ZM105.092 4.252H106.142V5.302H105.092V4.252ZM107.266 11C107.172 11 107.126 10.9533 107.126 10.86V10.216C107.126 10.1227 107.172 10.076 107.266 10.076H109.716C110.145 10.076 110.551 10.006 110.934 9.866C111.316 9.726 111.648 9.52533 111.928 9.264L113.818 7.528L111.186 6.282C110.915 6.17 110.7 6.114 110.542 6.114C110.364 6.114 110.187 6.156 110.01 6.24C109.832 6.324 109.683 6.43133 109.562 6.562L108.638 7.626L108.022 7.094L108.946 5.974C109.142 5.75 109.375 5.57267 109.646 5.442C109.926 5.31133 110.229 5.246 110.556 5.246C110.742 5.246 110.901 5.26933 111.032 5.316C111.162 5.35333 111.27 5.39533 111.354 5.442C111.447 5.47933 111.508 5.50267 111.536 5.512L114.588 6.94C114.662 6.97733 114.751 6.996 114.854 6.996H115.904V7.85H114.686L112.418 9.936C112.044 10.272 111.61 10.5333 111.116 10.72C110.63 10.9067 110.112 11 109.562 11H107.266ZM110.052 2.88H111.088V3.93H110.052V2.88ZM119.991 11C119.58 11 119.202 10.902 118.857 10.706C118.521 10.5007 118.25 10.2253 118.045 9.88C117.849 9.53467 117.751 9.15667 117.751 8.746V1.83H118.619V8.704C118.619 9.08667 118.749 9.41333 119.011 9.684C119.272 9.94533 119.594 10.076 119.977 10.076H120.551C120.644 10.076 120.691 10.1227 120.691 10.216V10.86C120.691 10.9533 120.644 11 120.551 11H119.991ZM128.367 11C127.965 11 127.606 10.902 127.289 10.706C126.971 10.51 126.724 10.244 126.547 9.908C126.379 9.56267 126.295 9.18467 126.295 8.774V6.688H127.009V8.746C127.009 9.11 127.139 9.42267 127.401 9.684C127.671 9.94533 127.993 10.076 128.367 10.076H129.375V6.24H130.243V11H128.367ZM120.555 11C120.461 11 120.415 10.9533 120.415 10.86V10.216C120.415 10.1227 120.461 10.076 120.555 10.076H121.213C121.586 10.076 121.903 9.94533 122.165 9.684C122.435 9.42267 122.571 9.11 122.571 8.746V6.688H123.285V8.774C123.285 9.18467 123.196 9.56267 123.019 9.908C122.841 10.244 122.594 10.51 122.277 10.706C121.969 10.902 121.614 11 121.213 11H120.555ZM124.797 11.028C124.395 11.028 124.036 10.93 123.719 10.734C123.411 10.538 123.168 10.272 122.991 9.936C122.813 9.59067 122.725 9.21267 122.725 8.802V6.688H123.439V8.774C123.439 9.138 123.569 9.45067 123.831 9.712C124.101 9.97333 124.423 10.104 124.797 10.104C125.161 10.104 125.473 9.97333 125.735 9.712C126.005 9.45067 126.141 9.138 126.141 8.774V6.688H126.855V8.802C126.855 9.21267 126.766 9.59067 126.589 9.936C126.411 10.272 126.164 10.538 125.847 10.734C125.539 10.93 125.189 11.028 124.797 11.028Z" fill="black"/>
</svg>
